# AST/ASF file generated using VICON BodyLanguage
# -----------------------------------------------
:version 1.10
:name VICON
:units
  mass 1.0
  length 0.45
  angle deg
:documentation
   .ast/.asf automatically generated from VICON data using
   VICON BodyBuilder and BodyLanguage model FoxedUp or BRILLIANT.MOD
:root
   order TX TY TZ RX RY RZ
   axis XYZ
   position 0 0 0  
   orientation 0 0 0 
:bonedata
  begin
     id 1 
     name lhipjoint
     direction 0.578396 -0.714046 0.394458 
     length 2.21935 
     axis 0 0 0  XYZ
  end
  begin
     id 2 
     name lfemur
     direction 0.34202 -0.939693 0  
     length 6.39105  
     axis 0 0 20  XYZ
    dof rx ry rz
    limits (-160.0 20.0)
           (-70.0 70.0)
           (-60.0 70.0)
  end
  begin
     id 3 
     name ltibia
     direction 0.34202 -0.939693 0   
     length 6.99037   
     axis 0 0 20   XYZ
    dof rx
    limits (-10.0 170.0)
  end
  begin
     id 4 
     name lfoot
     direction 0.0582372 -0.160005 0.985397   
     length 2.06111   
     axis -90 7.62852e-016 20   XYZ
    dof rx rz
    limits (-45.0 90.0)
           (-70.0 20.0)
  end
  begin
     id 5 
     name ltoes
     direction 1.53556e-011 -4.21875e-011 1   
     length 1.04074   
     axis -90 7.62852e-016 20   XYZ
    dof rx
    limits (-90.0 20.0)
  end
  begin
     id 6 
     name rhipjoint
     direction -0.558179 -0.726269 0.40121   
     length 2.182  
     axis 0 0 0  XYZ 
  end
  begin
     id 7 
     name rfemur
     direction -0.34202 -0.939693 0   
     length 6.51172   
     axis 0 0 -20   XYZ
    dof rx ry rz
    limits (-160.0 20.0)
           (-70.0 70.0)
           (-70.0 60.0)
  end
  begin
     id 8 
     name rtibia
     direction -0.34202 -0.939693 0   
     length 7.02607   
     axis 0 0 -20   XYZ
    dof rx
    limits (-10.0 170.0)
 end
 begin
     id 9 
     name rfoot
     direction -0.0788856 -0.216737 0.973038   
     length 1.96734  
     axis -90 -7.62852e-016 -20   XYZ
    dof rx rz
    limits (-45.0 90.0)
           (-20.0 70.0)
  end
  begin
     id 10 
     name rtoes
     direction -1.53567e-011 -4.21783e-011 1   
     length 0.990825   
     axis -90 -7.62852e-016 -20   XYZ
    dof rx
    limits (-90.0 20.0)
  end
  begin
     id 11 
     name lowerback
     direction 0.00668177 0.999323 -0.0361741   
     length 1.7655   
     axis 0 0 0   XYZ
    dof rx ry rz
    limits (-20.0 45.0)
           (-30.0 30.0)
           (-30.0 30.0)
  end
  begin
     id 12 
     name upperback
     direction -0.00222086 0.99851 0.0545167   
     length 1.74912   
     axis 0 0 0   XYZ
    dof rx ry rz
    limits (-20.0 45.0)
           (-30.0 30.0)
           (-30.0 30.0)
  end
  begin
     id 13 
     name thorax
     direction -0.00733971 0.997496 0.0703443   
     length 1.75715   
     axis 0 0 0   XYZ
    dof rx ry rz
    limits (-20.0 45.0)
           (-30.0 30.0)
           (-30.0 30.0)
  end
  begin
     id 14 
     name lowerneck
     direction 0.0279797 0.994795 0.0979765   
     length 1.46939   
     axis 0 0 0   XYZ
    dof rx ry rz
    limits (-20.0 45.0)
           (-30.0 30.0)
           (-30.0 30.0)
  end
  begin
     id 15 
     name upperneck
     direction 0.00339187 0.976776 -0.214238   
     length 1.48018   
     axis 0 0 0   XYZ
    dof rx ry rz
    limits (-20.0 45.0)
           (-30.0 30.0)
           (-30.0 30.0)
  end
  begin
     id 16
     name head
     direction -0.00263506 0.996603 -0.0823096  
     length 1.4976  
     axis 0 0 0   XYZ
    dof rx ry rz
    limits (-20.0 45.0)
           (-30.0 30.0)
           (-30.0 30.0)
  end
  begin
     id 17 
     name lclavicle
     direction 0.894044 0.44508 -0.0508781  
     length 3.03024  
     axis 0 0 0   XYZ
    dof ry rz
    limits (-20.0 10.0)
           (0.0 20.0)
  end
  begin
     id 18 
     name lhumerus
     direction 1 -4.48961e-011 -2.39475e-018   
     length 4.4661   
     axis 180 -30 -90   XYZ
    dof rx ry rz
    limits (-60.0 90.0)
           (-90.0 90.0)
           (-90.0 90.0)
  end
  begin
     id 19
     name lradius
     direction 1 -4.48961e-011 9.29328e-028   
     length 3.41414   
     axis 180 -30 -90   XYZ
    dof rx
    limits (-10.0 170.0)
  end
  begin
     id 20
     name lwrist
     direction 1 -4.48985e-011 1.53461e-026   
     length 1.70707   
     axis -1.09697e-014 90 90   XYZ
    dof ry
    limits (-180.0 0.0)
 end
  begin
     id 21 
     name lhand
     direction 1 -4.48966e-011 3.06923e-026   
     length 0.328298   
     axis -1.95843e-014 90 90   XYZ
    dof rx rz
    limits (-90.0 90.0)
           (-45.0 45.0)
  end
  begin
     id 22 
     name lfingers
     direction 1 -4.48893e-011 6.13845e-026   
     length 0.264682   
     axis -3.91686e-014 90 90   XYZ
    dof rx
    limits (0.0 90.0)
  end
  begin
     id 23
     name lthumb
     direction 0.707107 -6.34876e-011 0.707107   
     length 0.380032   
     axis -90 45 2.85299e-015   XYZ
    dof rx rz
    limits (-45.0 45.0)
           (-45.0 45.0)
  end
  begin
     id 24 
     name rclavicle
     direction -0.936955 0.347862 -0.0332887   
     length 3.26927  
     axis 0 0 0   XYZ 
    dof ry rz
    limits (-10.0 20.0)
           (-20.0 0.0)
  end
  begin
     id 25 
     name rhumerus
     direction -1 -4.4896e-011 1.78637e-018  
     length 4.40431   
     axis 180 30 90   XYZ
    dof rx ry rz
    limits (-90.0 60.0)
           (-90.0 90.0)
           (-90.0 90.0)
  end
  begin
     id 26 
     name rradius
     direction -1 -4.48955e-011 9.34036e-027   
     length 3.04688   
     axis 180 30 90   XYZ
    dof rx
    limits (-10.0 170.0)
  end
  begin
     id 27 
     name rwrist
     direction -1 -4.49011e-011 1.53461e-026   
     length 1.52344   
     axis -1.09697e-014 -90 -90   XYZ
    dof ry
    limits (-180.0 0.0)
  end
  begin
     id 28
     name rhand
     direction -1 -4.48834e-011 3.06923e-026   
     length 0.500489   
     axis -1.95843e-014 -90 -90   XYZ
    dof rx rz
    limits (-90.0 90.0)
           (-45.0 45.0)
  end
  begin
     id 29
     name rfingers
     direction -1 -4.48967e-011 6.13845e-026   
     length 0.403507   
     axis -3.91686e-014 -90 -90   XYZ
    dof rx
    limits (0.0 90.0)
  end
  begin
     id 30
     name rthumb
     direction -0.707107 -6.34826e-011 0.707107   
     length 0.579358   
     axis -90 -45 -2.85299e-015   XYZ
    dof rx rz
    limits (-45.0 45.0)
           (-45.0 45.0)
  end
:hierarchy
  begin
    root lhipjoint rhipjoint lowerback
    lhipjoint lfemur
    lfemur ltibia
    ltibia lfoot
    lfoot ltoes
    rhipjoint rfemur
    rfemur rtibia
    rtibia rfoot
    rfoot rtoes
    lowerback upperback
    upperback thorax
    thorax lowerneck lclavicle rclavicle
    lowerneck upperneck
    upperneck head
    lclavicle lhumerus
    lhumerus lradius
    lradius lwrist
    lwrist lhand lthumb
    lhand lfingers
    rclavicle rhumerus
    rhumerus rradius
    rradius rwrist
    rwrist rhand rthumb
    rhand rfingers
  end

#!OML:ASF H:\IndianDance\Patient Classification 1\Patient 1\Session 1\dancer.ASF
:FULLY-SPECIFIED
:DEGREES
985
root -21.8254 15.2488 7.3551 -174.916 -2.95239 -177.669
lowerback 7.15279 5.80759 5.14623
upperback -6.88742 8.13173 -1.16154
thorax -10.5094 3.37495 -5.33681
lowerneck -18.2145 -1.90843 -2.63492
upperneck 18.141 -2.60988 2.55765
head 8.74267 -1.19781 0.959429
rclavicle -1.05356e-014 -5.56597e-015
rhumerus 13.5308 39.0592 -77.3061
rradius 60.7224
rwrist -51.8566
rhand -45.9784 5.56453
rfingers 7.12502
rthumb -18.7249 -23.5542
lclavicle -1.05356e-014 -5.56597e-015
lhumerus 8.71964 -57.5983 -6.73351
lradius 127.05
lwrist -5.14955
lhand -62.8618 -5.49593
lfingers 7.12502
lthumb -34.8718 21.09
rfemur -33.5372 -12.3104 17.7339
rtibia 32.5215
rfoot -26.2374 -28.4041
rtoes 11.6553
lfemur -22.012 17.0833 -12.3225
ltibia 46.9137
lfoot -14.9212 12.8203
ltoes -1.35279
986
root -21.8861 15.2297 7.37495 -174.652 -2.85275 -177.988
lowerback 7.1209 6.08913 4.93809
upperback -6.98392 8.46153 -1.37876
thorax -10.5544 3.53488 -5.50117
lowerneck -18.5971 -1.70616 -2.59249
upperneck 18.4626 -2.40076 2.80581
head 8.918 -1.06715 1.0622
rclavicle 7.55382e-015 -6.55989e-015
rhumerus 15.2851 41.5718 -75.6211
rradius 60.0944
rwrist -50.5388
rhand -45.8907 6.22632
rfingers 7.12502
rthumb -18.6406 -22.9006
lclavicle 7.55382e-015 -6.55989e-015
lhumerus 8.82433 -57.6392 -6.89803
lradius 127.208
lwrist -5.04054
lhand -62.872 -5.10441
lfingers 7.12502
lthumb -34.8815 21.4792
rfemur -34.2328 -13.0936 17.4744
rtibia 32.9693
rfoot -26.1015 -27.997
rtoes 11.6233
lfemur -21.7757 16.3315 -12.5081
ltibia 45.0481
lfoot -14.8622 11.9373
ltoes -2.44423
987
root -21.9512 15.2064 7.39614 -174.305 -2.64979 -178.372
lowerback 6.97878 6.39333 4.76181
upperback -7.07238 8.81178 -1.65311
thorax -10.5076 3.70487 -5.72927
lowerneck -19.0864 -1.47826 -2.48328
upperneck 18.8296 -2.16604 3.0111
head 9.12662 -0.922469 1.14452
rclavicle -7.97872e-014 -5.1684e-015
rhumerus 17.2128 43.594 -74.2893
rradius 59.1959
rwrist -48.8482
rhand -44.8462 6.48414
rfingers 7.12502
rthumb -17.6357 -22.7361
lclavicle -7.97872e-014 -5.1684e-015
lhumerus 8.93032 -57.6101 -7.03919
lradius 127.331
lwrist -4.85664
lhand -62.8362 -5.13276
lfingers 7.12502
lthumb -34.8475 21.4588
rfemur -35.2237 -14.1696 17.2821
rtibia 33.6602
rfoot -25.5918 -27.5217
rtoes 10.5869
lfemur -21.7565 16.157 -12.9915
ltibia 43.9016
lfoot -14.5097 10.6031
ltoes -5.88916
988
root -22.0202 15.175 7.42063 -173.9 -2.33203 -178.79
lowerback 6.81626 6.73939 4.57616
upperback -7.1835 9.21488 -1.9172
thorax -10.4697 3.89939 -5.94489
lowerneck -19.5338 -1.24064 -2.43098
upperneck 19.1542 -1.90862 3.24263
head 9.31399 -0.768068 1.25083
rclavicle -5.44918e-014 1.64991e-014
rhumerus 19.2676 45.5824 -72.7032
rradius 58.3671
rwrist -47.1649
rhand -43.9911 7.12526
rfingers 7.12502
rthumb -16.8127 -22.1669
lclavicle -5.44918e-014 1.64991e-014
lhumerus 8.97133 -57.5336 -7.12137
lradius 127.5
lwrist -4.65257
lhand -62.8254 -5.50965
lfingers 7.12502
lthumb -34.8373 21.0842
rfemur -36.556 -15.598 17.2555
rtibia 34.6603
rfoot -24.9639 -26.6716
rtoes 8.7066
lfemur -21.7959 16.523 -13.7102
ltibia 43.5326
lfoot -14.3471 9.77588
ltoes -9.29343
989
root -22.0906 15.1421 7.44812 -173.454 -1.89221 -179.099
lowerback 6.62366 7.1578 4.50984
upperback -7.29417 9.73038 -2.1624
thorax -10.3825 4.14313 -6.20946
lowerneck -19.8781 -1.06681 -2.50922
upperneck 19.3123 -1.71162 3.54778
head 9.42871 -0.642506 1.39759
rclavicle -5.73742e-014 -4.96962e-015
rhumerus 21.5035 47.4307 -70.8278
rradius 57.5186
rwrist -45.3722
rhand -42.9536 7.98457
rfingers 7.12502
rthumb -15.8137 -21.3895
lclavicle -5.73742e-014 -4.96962e-015
lhumerus 9.20734 -57.241 -7.2055
lradius 127.404
lwrist -4.51604
lhand -62.4646 -7.85479
lfingers 7.12502
lthumb -34.4948 18.8177
rfemur -38.0961 -17.0012 17.43
rtibia 35.8419
rfoot -24.6693 -25.5029
rtoes 7.8205
lfemur -22.0439 17.0422 -14.3862
ltibia 43.734
lfoot -15.1529 9.30864
ltoes -10.0035
990
root -22.1633 15.0856 7.47765 -173.001 -1.39772 -179.273
lowerback 6.43853 7.5583 4.6149
upperback -7.41818 10.2457 -2.36976
thorax -10.29 4.37516 -6.52242
lowerneck -20.0842 -0.829574 -2.48721
upperneck 19.3549 -1.43612 3.77046
head 9.4731 -0.483322 1.51044
rclavicle -7.1811e-014 -1.61016e-014
rhumerus 23.9275 49.2872 -68.7498
rradius 56.7165
rwrist -43.5066
rhand -42.0748 9.1705
rfingers 7.12502
rthumb -14.9672 -20.2687
lclavicle -7.1811e-014 -1.61016e-014
lhumerus 9.07399 -57.0818 -7.01113
lradius 127.484
lwrist -4.38755
lhand -62.1895 -7.91229
lfingers 7.12502
lthumb -34.2336 18.8193
rfemur -39.8719 -18.4477 17.8843
rtibia 37.2628
rfoot -24.6613 -24.2744
rtoes 6.99164
lfemur -22.5271 17.9001 -15.0866
ltibia 44.1857
lfoot -16.5369 9.2365
ltoes -11.2209
991
root -22.2382 15.034 7.50997 -172.578 -0.855037 -179.365
lowerback 6.44521 7.98078 4.8897
upperback -7.62042 10.8145 -2.63886
thorax -10.345 4.60416 -7.03239
lowerneck -20.0423 -0.613372 -2.39802
upperneck 19.2263 -1.22287 4.04219
head 9.41448 -0.345976 1.61872
rclavicle 6.74377e-014 -2.5842e-015
rhumerus 26.2956 50.9473 -66.842
rradius 55.7978
rwrist -41.4885
rhand -41.3349 10.5197
rfingers 7.12502
rthumb -14.2543 -18.9711
lclavicle 6.74377e-014 -2.5842e-015
lhumerus 9.45831 -56.9802 -7.26441
lradius 127.606
lwrist -4.17607
lhand -62.0021 -5.6899
lfingers 7.12502
lthumb -34.0557 21.0815
rfemur -41.6972 -19.98 18.5768
rtibia 38.7861
rfoot -24.81 -22.8831
rtoes 7.10066
lfemur -23.4156 18.7496 -15.7461
ltibia 44.7204
lfoot -18.0758 8.70904
ltoes -7.13204
992
root -22.3117 14.9796 7.5446 -172.23 -0.351331 -179.434
lowerback 6.40204 8.32844 5.23574
upperback -7.69524 11.2984 -2.8746
thorax -10.2227 4.80769 -7.50853
lowerneck -20.0451 -0.351909 -2.34724
upperneck 19.014 -0.933744 4.34343
head 9.33182 -0.171066 1.75298
rclavicle -2.76559e-014 -2.50469e-014
rhumerus 29.1964 52.4388 -64.5374
rradius 54.7713
rwrist -39.0117
rhand -39.723 11.6883
rfingers 7.12502
rthumb -12.7007 -17.9055
lclavicle -2.76559e-014 -2.50469e-014
lhumerus 9.59918 -56.6063 -7.24166
lradius 127.445
lwrist -4.09644
lhand -61.8572 -5.91122
lfingers 7.12502
lthumb -33.9181 20.8907
rfemur -43.5269 -21.4519 19.3388
rtibia 40.4632
rfoot -25.3118 -21.6312
rtoes 8.70076
lfemur -24.3475 19.8624 -16.4517
ltibia 45.2912
lfoot -18.7995 9.13549
ltoes -6.36382
993
root -22.3843 14.9271 7.58319 -171.994 0.070981 -179.531
lowerback 6.55185 8.15483 5.51476
upperback -7.80767 11.8962 -3.08677
thorax -10.2868 5.39505 -8.05023
lowerneck -20.0539 -0.103144 -2.16752
upperneck 18.9087 -0.69122 4.56418
head 9.28823 -0.0191616 1.8319
rclavicle 1.54679e-013 -9.34288e-015
rhumerus 31.8347 53.6381 -62.5056
rradius 53.6891
rwrist -36.3212
rhand -38.4062 13.1122
rfingers 7.12502
rthumb -11.4311 -16.5562
lclavicle 1.54679e-013 -9.34288e-015
lhumerus 10.0114 -56.3343 -7.34178
lradius 127.205
lwrist -3.95813
lhand -61.7098 -5.97747
lfingers 7.12502
lthumb -33.778 20.8553
rfemur -45.2379 -22.8089 20.0412
rtibia 42.2477
rfoot -25.5795 -20.8948
rtoes 10.6327
lfemur -25.1505 20.9788 -17.1715
ltibia 46.0036
lfoot -19.3808 9.14155
ltoes -5.58206
994
root -22.4554 14.8876 7.62365 -171.811 0.403906 -179.751
lowerback 6.74512 8.41233 5.72225
upperback -7.88095 12.2706 -3.33759
thorax -10.3289 5.54861 -8.50456
lowerneck -19.8758 0.339938 -1.47037
upperneck 18.6967 -0.227127 4.32927
head 9.1651 0.220528 1.69424
rclavicle -6.24681e-014 1.23246e-014
rhumerus 34.792 54.7453 -60.3889
rradius 52.3604
rwrist -33.4959
rhand -36.6139 14.3825
rfingers 7.12502
rthumb -9.70215 -15.3741
lclavicle -6.24681e-014 1.23246e-014
lhumerus 10.3617 -56.0514 -7.32658
lradius 126.856
lwrist -3.74319
lhand -61.3757 -6.16098
lfingers 7.12502
lthumb -33.4605 20.7409
rfemur -47.062 -24.2038 20.6783
rtibia 44.2985
rfoot -24.2332 -21.7403
rtoes 8.96489
lfemur -25.9339 22.0124 -17.9666
ltibia 46.8479
lfoot -19.8206 8.97566
ltoes -5.34072
